<svg width="281" height="102" viewBox="0 0 281 102" fill="none" xmlns="http://www.w3.org/2000/svg">
<g style="mix-blend-mode:screen">
<path d="M126.975 69.0268H113.543V34.1177H126.838C130.429 34.1177 133.531 34.8166 136.145 36.2143C138.77 37.6007 140.793 39.6007 142.213 42.2143C143.645 44.8166 144.361 47.9359 144.361 51.5722C144.361 55.2086 143.651 58.3336 142.23 60.9472C140.81 63.5495 138.799 65.5495 136.196 66.9472C133.594 68.3336 130.52 69.0268 126.975 69.0268ZM123.02 60.9813H126.634C128.361 60.9813 129.833 60.7029 131.049 60.1461C132.276 59.5893 133.208 58.6291 133.844 57.2654C134.492 55.9018 134.816 54.0041 134.816 51.5722C134.816 49.1404 134.486 47.2427 133.827 45.8791C133.179 44.5154 132.225 43.5552 130.963 42.9984C129.713 42.4416 128.179 42.1632 126.361 42.1632H123.02V60.9813ZM148.746 69.0268V34.1177H173.905V41.7541H158.223V47.7541H172.61V55.3904H158.223V61.3904H173.837V69.0268H148.746ZM197.424 45.0268C197.333 43.8904 196.906 43.0041 196.145 42.3677C195.395 41.7313 194.253 41.4132 192.719 41.4132C191.742 41.4132 190.941 41.5325 190.316 41.7711C189.702 41.9984 189.247 42.3109 188.952 42.7086C188.656 43.1063 188.503 43.5609 188.492 44.0722C188.469 44.4927 188.543 44.8734 188.713 45.2143C188.895 45.5438 189.179 45.845 189.566 46.1177C189.952 46.3791 190.446 46.6177 191.049 46.8336C191.651 47.0495 192.367 47.2427 193.196 47.4132L196.06 48.0268C197.992 48.4359 199.645 48.9757 201.02 49.6461C202.395 50.3166 203.52 51.1063 204.395 52.0154C205.27 52.9132 205.912 53.9245 206.321 55.0495C206.742 56.1745 206.958 57.4018 206.969 58.7313C206.958 61.0268 206.384 62.97 205.247 64.5609C204.111 66.1518 202.486 67.362 200.372 68.1916C198.27 69.0211 195.742 69.4359 192.787 69.4359C189.753 69.4359 187.105 68.987 184.844 68.0893C182.594 67.1916 180.844 65.8109 179.594 63.9472C178.355 62.0722 177.73 59.6745 177.719 56.7541H186.719C186.776 57.8222 187.043 58.72 187.52 59.4472C187.997 60.1745 188.668 60.7257 189.531 61.1007C190.406 61.4757 191.446 61.6632 192.651 61.6632C193.662 61.6632 194.509 61.5382 195.191 61.2882C195.872 61.0382 196.389 60.6916 196.742 60.2484C197.094 59.8052 197.276 59.2995 197.287 58.7313C197.276 58.1972 197.1 57.7313 196.759 57.3336C196.429 56.9245 195.884 56.5609 195.122 56.2427C194.361 55.9132 193.333 55.6063 192.037 55.3222L188.56 54.5722C185.469 53.9018 183.031 52.7825 181.247 51.2143C179.475 49.6347 178.594 47.4813 178.605 44.7541C178.594 42.5382 179.185 40.6007 180.378 38.9416C181.583 37.2711 183.247 35.97 185.372 35.0382C187.509 34.1063 189.958 33.6404 192.719 33.6404C195.537 33.6404 197.975 34.112 200.031 35.0552C202.088 35.9984 203.674 37.3279 204.787 39.0438C205.912 40.7484 206.48 42.7427 206.492 45.0268H197.424ZM233.245 45.6404C233.097 45.0382 232.864 44.5097 232.546 44.0552C232.228 43.5893 231.83 43.1972 231.353 42.8791C230.887 42.5495 230.341 42.3052 229.716 42.1461C229.103 41.9757 228.426 41.8904 227.688 41.8904C226.097 41.8904 224.739 42.2711 223.614 43.0325C222.5 43.7938 221.648 44.8904 221.057 46.3222C220.478 47.7541 220.188 49.4813 220.188 51.5041C220.188 53.5495 220.466 55.2995 221.023 56.7541C221.58 58.2086 222.409 59.3222 223.512 60.095C224.614 60.8677 225.983 61.2541 227.62 61.2541C229.063 61.2541 230.262 61.0438 231.216 60.6234C232.182 60.2029 232.904 59.6063 233.381 58.8336C233.858 58.0609 234.097 57.1518 234.097 56.1063L235.733 56.2768H227.756V49.5268H243.233V54.3677C243.233 57.5495 242.557 60.2711 241.205 62.5325C239.864 64.7825 238.012 66.5097 235.648 67.7143C233.296 68.9075 230.597 69.5041 227.551 69.5041C224.154 69.5041 221.171 68.7825 218.603 67.3393C216.034 65.8961 214.029 63.8393 212.585 61.1688C211.154 58.4984 210.438 55.3222 210.438 51.6404C210.438 48.7541 210.875 46.1972 211.75 43.97C212.637 41.7427 213.864 39.862 215.432 38.3279C217 36.7825 218.813 35.6177 220.87 34.8336C222.926 34.0382 225.131 33.6404 227.483 33.6404C229.551 33.6404 231.472 33.9359 233.245 34.5268C235.029 35.1063 236.603 35.9359 237.966 37.0154C239.341 38.0836 240.449 39.3507 241.29 40.8166C242.131 42.2825 242.642 43.8904 242.824 45.6404H233.245ZM277.857 34.1177V69.0268H269.948L257.334 50.6859H257.129V69.0268H247.652V34.1177H255.698L268.107 52.3904H268.379V34.1177H277.857Z" fill="url(#paint0_linear_7_218)"/>
</g>
<g style="mix-blend-mode:screen">
<circle cx="41.69" cy="69.6961" r="24" transform="rotate(-22.5 41.69 69.6961)" fill="#EC4899"/>
</g>
<g style="mix-blend-mode:screen">
<circle cx="74.0257" cy="56.3022" r="24" transform="rotate(-22.5 74.0257 56.3022)" fill="#F87171"/>
</g>
<g style="mix-blend-mode:screen">
<circle cx="48.9112" cy="37.4804" r="24" transform="rotate(-22.5 48.9112 37.4804)" fill="#4F46E5"/>
</g>
<defs>
<linearGradient id="paint0_linear_7_218" x1="102.803" y1="23.0268" x2="280.259" y2="64.2061" gradientUnits="userSpaceOnUse">
<stop stop-color="#FFBEFB"/>
<stop offset="1" stop-color="#F87171"/>
</linearGradient>
</defs>
</svg>
