<svg width="578" height="578" viewBox="0 0 578 578" fill="none" xmlns="http://www.w3.org/2000/svg">
<g clip-path="url(#clip0_5_104)">
<path d="M578 289C578.101 357.219 553.97 423.257 509.91 475.34C508.31 477.24 506.68 479.11 505.02 480.97C485.485 502.94 462.729 521.818 437.53 536.96C431.75 540.43 425.843 543.7 419.81 546.77C419.2 547.08 418.58 547.39 417.97 547.69C417.24 548.06 416.5 548.42 415.76 548.78C400.493 556.253 384.59 562.35 368.24 567C366.54 567.48 364.837 567.947 363.13 568.4C341.622 574.091 319.529 577.275 297.29 577.89C296.13 577.92 294.99 577.94 293.89 577.96C293.5 577.97 293.12 577.98 292.74 577.98C291.49 577.99 290.25 578 289 578C265.564 578.017 242.213 575.187 219.46 569.57C217.18 569.01 214.91 568.42 212.65 567.8C200.746 564.55 189.064 560.532 177.68 555.77C171.68 553.27 165.787 550.573 160 547.68C158.69 547.02 157.38 546.36 156.09 545.68C155.54 545.41 155 545.12 154.46 544.84C123.618 528.562 95.9603 506.862 72.81 480.78C71.21 478.99 69.64 477.17 68.09 475.34C42.5827 445.097 23.5559 409.94 12.1881 372.045C0.820227 334.15 -2.64662 294.325 2.00225 255.036C6.65112 215.747 19.3167 177.831 39.2146 143.636C59.1125 109.441 85.819 79.6945 117.68 56.24C119.32 55.03 120.97 53.83 122.64 52.66C122.97 52.43 123.3 52.2 123.63 51.97C152.973 31.416 185.908 16.5427 220.73 8.12C222.71 7.63 224.69 7.17001 226.69 6.74001C264.407 -1.5103 303.387 -2.1935 341.37 4.73C343.36 5.1 345.35 5.48 347.33 5.89C381.841 12.9685 414.755 26.3342 444.43 45.32C445.09 45.74 445.75 46.16 446.41 46.6C447.74 47.46 449.07 48.34 450.38 49.23C489.691 75.6583 521.894 111.354 544.151 153.168C566.407 194.983 578.032 241.631 578 289Z" fill="#F2F2F2"/>
<path d="M216 438.51L123.63 446.71L122.64 446.8V52.66C122.97 52.43 123.3 52.2 123.63 51.97C142.881 38.5047 163.705 27.4427 185.64 19.03L190.36 84.13L190.79 90.09L195.46 154.65L196.9 174.51L215.83 436.21L216 438.51Z" fill="#CCCCCC"/>
<path d="M444.43 45.32C445.09 45.74 445.75 46.16 446.41 46.6V446.8L444.43 446.62L353.06 438.51L353.23 436.21L372.16 174.51L373.6 154.65L378.27 90.09L378.7 84.13L383.65 15.86C404.997 23.2594 425.397 33.1475 444.43 45.32Z" fill="#CCCCCC"/>
<path d="M444.43 45.32V452.26C444.43 460.07 439.05 466.42 432.43 466.42H135.63C130.15 466.42 125.5 462.06 124.09 456.11C123.782 454.85 123.628 453.557 123.63 452.26V51.97C123.3 52.2 122.97 52.43 122.64 52.66C120.97 53.83 119.32 55.03 117.68 56.24V452.26C117.591 458.192 119.807 463.928 123.86 468.26C125.985 470.487 128.674 472.097 131.64 472.92C132.94 473.274 134.282 473.452 135.63 473.45H432.43C433.781 473.451 435.126 473.273 436.43 472.92C444.41 470.77 450.38 462.33 450.38 452.26V49.23C449.07 48.34 447.74 47.46 446.41 46.6C445.75 46.16 445.09 45.74 444.43 45.32Z" fill="#CCCCCC"/>
<path d="M447.407 84.134H120.655V90.093H447.407V84.134Z" fill="#CCCCCC"/>
<path d="M220.73 8.12C222.71 7.63 224.69 7.17001 226.69 6.74001V168.55H220.73V8.12Z" fill="#CCCCCC"/>
<path d="M341.37 4.73C343.36 5.1 345.35 5.48 347.33 5.89V168.55H341.37V4.73Z" fill="#CCCCCC"/>
<path d="M484.65 436.21H93.34C86.2269 436.21 79.4051 439.036 74.3754 444.065C69.3457 449.095 66.52 455.917 66.52 463.03C66.52 470.143 69.3457 476.965 74.3754 481.995C79.4051 487.024 86.2269 489.85 93.34 489.85H484.65C488.459 489.851 492.224 489.039 495.694 487.468C499.163 485.896 502.258 483.603 504.77 480.74C505.907 479.446 506.918 478.046 507.79 476.56C508.465 475.42 509.05 474.23 509.54 473C511.174 468.931 511.784 464.524 511.318 460.164C510.852 455.804 509.324 451.626 506.867 447.994C504.41 444.363 501.1 441.389 497.226 439.335C493.353 437.28 489.035 436.207 484.65 436.21Z" fill="#CCCCCC"/>
<path d="M447.407 154.649H122.642V174.512H447.407V154.649Z" fill="#CCCCCC"/>
<path d="M282.045 148.69H288.004C289.439 148.69 290.859 148.972 292.185 149.521C293.51 150.071 294.715 150.875 295.729 151.89C296.743 152.904 297.548 154.109 298.097 155.434C298.646 156.759 298.929 158.18 298.929 159.615H271.12C271.12 156.717 272.271 153.938 274.32 151.89C276.369 149.841 279.147 148.69 282.045 148.69H282.045Z" fill="#CCCCCC"/>
<path d="M509.91 475.34C501.223 485.634 491.826 495.307 481.79 504.29H96.21C86.1735 495.307 76.7773 485.634 68.09 475.34H509.91Z" fill="#3F3D56"/>
<path d="M321.28 375.07H256.36C256.01 375.066 255.662 375.12 255.33 375.23C254.625 375.448 254.009 375.886 253.572 376.48C253.134 377.074 252.899 377.792 252.9 378.53V481.09H324.75V378.53C324.75 378.075 324.659 377.624 324.485 377.204C324.31 376.784 324.054 376.402 323.732 376.081C323.41 375.759 323.027 375.505 322.607 375.331C322.186 375.158 321.735 375.069 321.28 375.07ZM296.71 425.67C296.712 427.334 296.164 428.951 295.15 430.27C294.183 431.55 292.838 432.494 291.305 432.969C289.773 433.445 288.13 433.427 286.608 432.919C285.086 432.411 283.762 431.438 282.822 430.138C281.882 428.837 281.375 427.274 281.37 425.67V413.77C281.389 411.748 282.205 409.815 283.641 408.392C285.078 406.969 287.018 406.171 289.04 406.171C291.062 406.171 293.002 406.969 294.439 408.392C295.875 409.815 296.691 411.748 296.71 413.77V425.67Z" fill="#2F2E41"/>
<path d="M252.68 477.81V487.7C252.68 488.213 252.883 488.705 253.245 489.068C253.606 489.432 254.097 489.637 254.61 489.64H323.04C323.552 489.636 324.042 489.43 324.404 489.066C324.765 488.703 324.968 488.212 324.97 487.7V477.81H252.68Z" fill="#3F3D56"/>
<path d="M428.78 215.02H151.28C148.896 215.023 146.61 215.971 144.923 217.656C143.236 219.341 142.286 221.626 142.28 224.01V411.27C142.282 413.656 143.231 415.944 144.918 417.632C146.606 419.319 148.894 420.268 151.28 420.27H428.78C431.166 420.268 433.454 419.319 435.142 417.632C436.829 415.944 437.778 413.656 437.78 411.27V224.01C437.774 221.626 436.824 219.341 435.137 217.656C433.45 215.971 431.164 215.023 428.78 215.02Z" fill="#3F3D56"/>
<path d="M426.46 221.52H153.59C152.313 221.523 151.09 222.032 150.188 222.935C149.287 223.839 148.78 225.063 148.78 226.34V408.96C148.782 410.235 149.29 411.457 150.191 412.359C151.093 413.26 152.315 413.768 153.59 413.77H426.46C427.735 413.768 428.957 413.26 429.859 412.359C430.76 411.457 431.268 410.235 431.27 408.96V226.34C431.27 225.063 430.763 223.839 429.862 222.935C428.96 222.032 427.737 221.523 426.46 221.52Z" fill="#4F46E5"/>
<path d="M376.24 489.48L373.72 477.51C373.616 477.022 373.391 476.568 373.066 476.189C372.741 475.81 372.326 475.518 371.86 475.34C371.522 475.208 371.163 475.14 370.8 475.14H213.49C213.127 475.14 212.768 475.208 212.43 475.34C211.964 475.518 211.549 475.81 211.224 476.189C210.899 476.568 210.674 477.022 210.57 477.51L208.05 489.48C207.959 489.915 207.966 490.364 208.07 490.795C208.175 491.227 208.374 491.63 208.654 491.975C208.933 492.319 209.286 492.597 209.687 492.789C210.088 492.98 210.526 493.079 210.97 493.08H373.31C373.755 493.082 374.196 492.984 374.597 492.791C374.999 492.599 375.352 492.318 375.63 491.97C375.91 491.626 376.11 491.225 376.216 490.794C376.321 490.363 376.33 489.914 376.24 489.48Z" fill="#2F2E41"/>
<path d="M219.155 477.296H215.131C214.862 477.296 214.643 477.514 214.643 477.784V479.808C214.643 480.077 214.862 480.296 215.131 480.296H219.155C219.424 480.296 219.643 480.077 219.643 479.808V477.784C219.643 477.514 219.424 477.296 219.155 477.296Z" fill="#3F3D56"/>
<path d="M229.155 477.296H225.131C224.862 477.296 224.643 477.514 224.643 477.784V479.808C224.643 480.077 224.862 480.296 225.131 480.296H229.155C229.424 480.296 229.643 480.077 229.643 479.808V477.784C229.643 477.514 229.424 477.296 229.155 477.296Z" fill="#3F3D56"/>
<path d="M239.155 477.296H235.131C234.862 477.296 234.643 477.514 234.643 477.784V479.808C234.643 480.077 234.862 480.296 235.131 480.296H239.155C239.424 480.296 239.643 480.077 239.643 479.808V477.784C239.643 477.514 239.424 477.296 239.155 477.296Z" fill="#3F3D56"/>
<path d="M249.155 477.296H245.131C244.862 477.296 244.643 477.514 244.643 477.784V479.808C244.643 480.077 244.862 480.296 245.131 480.296H249.155C249.424 480.296 249.643 480.077 249.643 479.808V477.784C249.643 477.514 249.424 477.296 249.155 477.296Z" fill="#3F3D56"/>
<path d="M259.155 477.296H255.131C254.862 477.296 254.643 477.514 254.643 477.784V479.808C254.643 480.077 254.862 480.296 255.131 480.296H259.155C259.424 480.296 259.643 480.077 259.643 479.808V477.784C259.643 477.514 259.424 477.296 259.155 477.296Z" fill="#3F3D56"/>
<path d="M269.155 477.296H265.131C264.862 477.296 264.643 477.514 264.643 477.784V479.808C264.643 480.077 264.862 480.296 265.131 480.296H269.155C269.424 480.296 269.643 480.077 269.643 479.808V477.784C269.643 477.514 269.424 477.296 269.155 477.296Z" fill="#3F3D56"/>
<path d="M279.155 477.296H275.131C274.862 477.296 274.643 477.514 274.643 477.784V479.808C274.643 480.077 274.862 480.296 275.131 480.296H279.155C279.424 480.296 279.643 480.077 279.643 479.808V477.784C279.643 477.514 279.424 477.296 279.155 477.296Z" fill="#3F3D56"/>
<path d="M289.155 477.296H285.131C284.862 477.296 284.643 477.514 284.643 477.784V479.808C284.643 480.077 284.862 480.296 285.131 480.296H289.155C289.424 480.296 289.643 480.077 289.643 479.808V477.784C289.643 477.514 289.424 477.296 289.155 477.296Z" fill="#3F3D56"/>
<path d="M299.155 477.296H295.131C294.862 477.296 294.643 477.514 294.643 477.784V479.808C294.643 480.077 294.862 480.296 295.131 480.296H299.155C299.424 480.296 299.643 480.077 299.643 479.808V477.784C299.643 477.514 299.424 477.296 299.155 477.296Z" fill="#3F3D56"/>
<path d="M309.155 477.296H305.131C304.862 477.296 304.643 477.514 304.643 477.784V479.808C304.643 480.077 304.862 480.296 305.131 480.296H309.155C309.424 480.296 309.643 480.077 309.643 479.808V477.784C309.643 477.514 309.424 477.296 309.155 477.296Z" fill="#3F3D56"/>
<path d="M319.155 477.296H315.131C314.862 477.296 314.643 477.514 314.643 477.784V479.808C314.643 480.077 314.862 480.296 315.131 480.296H319.155C319.424 480.296 319.643 480.077 319.643 479.808V477.784C319.643 477.514 319.424 477.296 319.155 477.296Z" fill="#3F3D56"/>
<path d="M329.155 477.296H325.131C324.862 477.296 324.643 477.514 324.643 477.784V479.808C324.643 480.077 324.862 480.296 325.131 480.296H329.155C329.424 480.296 329.643 480.077 329.643 479.808V477.784C329.643 477.514 329.424 477.296 329.155 477.296Z" fill="#3F3D56"/>
<path d="M339.155 477.296H335.131C334.862 477.296 334.643 477.514 334.643 477.784V479.808C334.643 480.077 334.862 480.296 335.131 480.296H339.155C339.424 480.296 339.643 480.077 339.643 479.808V477.784C339.643 477.514 339.424 477.296 339.155 477.296Z" fill="#3F3D56"/>
<path d="M349.155 477.296H345.131C344.862 477.296 344.643 477.514 344.643 477.784V479.808C344.643 480.077 344.862 480.296 345.131 480.296H349.155C349.424 480.296 349.643 480.077 349.643 479.808V477.784C349.643 477.514 349.424 477.296 349.155 477.296Z" fill="#3F3D56"/>
<path d="M359.155 477.296H355.131C354.862 477.296 354.643 477.514 354.643 477.784V479.808C354.643 480.077 354.862 480.296 355.131 480.296H359.155C359.424 480.296 359.643 480.077 359.643 479.808V477.784C359.643 477.514 359.424 477.296 359.155 477.296Z" fill="#3F3D56"/>
<path d="M369.155 477.296H365.131C364.862 477.296 364.643 477.514 364.643 477.784V479.808C364.643 480.077 364.862 480.296 365.131 480.296H369.155C369.424 480.296 369.643 480.077 369.643 479.808V477.784C369.643 477.514 369.424 477.296 369.155 477.296Z" fill="#3F3D56"/>
<path d="M219.037 482.296H215.013C214.743 482.296 214.525 482.514 214.525 482.784V484.808C214.525 485.077 214.743 485.296 215.013 485.296H219.037C219.306 485.296 219.525 485.077 219.525 484.808V482.784C219.525 482.514 219.306 482.296 219.037 482.296Z" fill="#3F3D56"/>
<path d="M229.037 482.296H225.013C224.743 482.296 224.525 482.514 224.525 482.784V484.808C224.525 485.077 224.743 485.296 225.013 485.296H229.037C229.306 485.296 229.525 485.077 229.525 484.808V482.784C229.525 482.514 229.306 482.296 229.037 482.296Z" fill="#3F3D56"/>
<path d="M239.037 482.296H235.013C234.743 482.296 234.525 482.514 234.525 482.784V484.808C234.525 485.077 234.743 485.296 235.013 485.296H239.037C239.306 485.296 239.525 485.077 239.525 484.808V482.784C239.525 482.514 239.306 482.296 239.037 482.296Z" fill="#3F3D56"/>
<path d="M249.037 482.296H245.013C244.743 482.296 244.525 482.514 244.525 482.784V484.808C244.525 485.077 244.743 485.296 245.013 485.296H249.037C249.306 485.296 249.525 485.077 249.525 484.808V482.784C249.525 482.514 249.306 482.296 249.037 482.296Z" fill="#3F3D56"/>
<path d="M259.037 482.296H255.013C254.743 482.296 254.525 482.514 254.525 482.784V484.808C254.525 485.077 254.743 485.296 255.013 485.296H259.037C259.306 485.296 259.525 485.077 259.525 484.808V482.784C259.525 482.514 259.306 482.296 259.037 482.296Z" fill="#3F3D56"/>
<path d="M269.037 482.296H265.013C264.743 482.296 264.525 482.514 264.525 482.784V484.808C264.525 485.077 264.743 485.296 265.013 485.296H269.037C269.306 485.296 269.525 485.077 269.525 484.808V482.784C269.525 482.514 269.306 482.296 269.037 482.296Z" fill="#3F3D56"/>
<path d="M279.037 482.296H275.013C274.743 482.296 274.525 482.514 274.525 482.784V484.808C274.525 485.077 274.743 485.296 275.013 485.296H279.037C279.306 485.296 279.525 485.077 279.525 484.808V482.784C279.525 482.514 279.306 482.296 279.037 482.296Z" fill="#3F3D56"/>
<path d="M289.037 482.296H285.013C284.743 482.296 284.525 482.514 284.525 482.784V484.808C284.525 485.077 284.743 485.296 285.013 485.296H289.037C289.306 485.296 289.525 485.077 289.525 484.808V482.784C289.525 482.514 289.306 482.296 289.037 482.296Z" fill="#3F3D56"/>
<path d="M299.037 482.296H295.013C294.743 482.296 294.525 482.514 294.525 482.784V484.808C294.525 485.077 294.743 485.296 295.013 485.296H299.037C299.306 485.296 299.525 485.077 299.525 484.808V482.784C299.525 482.514 299.306 482.296 299.037 482.296Z" fill="#3F3D56"/>
<path d="M309.037 482.296H305.013C304.743 482.296 304.525 482.514 304.525 482.784V484.808C304.525 485.077 304.743 485.296 305.013 485.296H309.037C309.306 485.296 309.525 485.077 309.525 484.808V482.784C309.525 482.514 309.306 482.296 309.037 482.296Z" fill="#3F3D56"/>
<path d="M319.037 482.296H315.013C314.743 482.296 314.525 482.514 314.525 482.784V484.808C314.525 485.077 314.743 485.296 315.013 485.296H319.037C319.306 485.296 319.525 485.077 319.525 484.808V482.784C319.525 482.514 319.306 482.296 319.037 482.296Z" fill="#3F3D56"/>
<path d="M329.037 482.296H325.013C324.743 482.296 324.525 482.514 324.525 482.784V484.808C324.525 485.077 324.743 485.296 325.013 485.296H329.037C329.306 485.296 329.525 485.077 329.525 484.808V482.784C329.525 482.514 329.306 482.296 329.037 482.296Z" fill="#3F3D56"/>
<path d="M339.037 482.296H335.013C334.743 482.296 334.525 482.514 334.525 482.784V484.808C334.525 485.077 334.743 485.296 335.013 485.296H339.037C339.306 485.296 339.525 485.077 339.525 484.808V482.784C339.525 482.514 339.306 482.296 339.037 482.296Z" fill="#3F3D56"/>
<path d="M349.037 482.296H345.013C344.743 482.296 344.525 482.514 344.525 482.784V484.808C344.525 485.077 344.743 485.296 345.013 485.296H349.037C349.306 485.296 349.525 485.077 349.525 484.808V482.784C349.525 482.514 349.306 482.296 349.037 482.296Z" fill="#3F3D56"/>
<path d="M359.037 482.296H355.013C354.743 482.296 354.525 482.514 354.525 482.784V484.808C354.525 485.077 354.743 485.296 355.013 485.296H359.037C359.306 485.296 359.525 485.077 359.525 484.808V482.784C359.525 482.514 359.306 482.296 359.037 482.296Z" fill="#3F3D56"/>
<path d="M369.037 482.296H365.013C364.743 482.296 364.525 482.514 364.525 482.784V484.808C364.525 485.077 364.743 485.296 365.013 485.296H369.037C369.306 485.296 369.525 485.077 369.525 484.808V482.784C369.525 482.514 369.306 482.296 369.037 482.296Z" fill="#3F3D56"/>
<path d="M302.037 488.296H263.013C262.743 488.296 262.525 488.514 262.525 488.784V490.808C262.525 491.077 262.743 491.296 263.013 491.296H302.037C302.306 491.296 302.525 491.077 302.525 490.808V488.784C302.525 488.514 302.306 488.296 302.037 488.296Z" fill="#3F3D56"/>
<path d="M412.748 246.677H157.425C157.159 246.671 156.907 246.561 156.721 246.372C156.535 246.182 156.431 245.927 156.431 245.661C156.431 245.396 156.535 245.141 156.721 244.951C156.907 244.761 157.159 244.652 157.425 244.646H412.748C413.014 244.652 413.266 244.761 413.452 244.951C413.637 245.141 413.741 245.396 413.741 245.661C413.741 245.927 413.637 246.182 413.452 246.372C413.266 246.561 413.014 246.671 412.748 246.677Z" fill="#3F3D56"/>
<path d="M174.805 239.462C178.091 239.462 180.755 236.738 180.755 233.379C180.755 230.019 178.091 227.296 174.805 227.296C171.519 227.296 168.855 230.019 168.855 233.379C168.855 236.738 171.519 239.462 174.805 239.462Z" fill="#3F3D56"/>
<path d="M195.361 239.462C198.647 239.462 201.311 236.738 201.311 233.379C201.311 230.019 198.647 227.296 195.361 227.296C192.075 227.296 189.411 230.019 189.411 233.379C189.411 236.738 192.075 239.462 195.361 239.462Z" fill="#3F3D56"/>
<path d="M215.917 239.462C219.203 239.462 221.867 236.738 221.867 233.379C221.867 230.019 219.203 227.296 215.917 227.296C212.631 227.296 209.967 230.019 209.967 233.379C209.967 236.738 212.631 239.462 215.917 239.462Z" fill="#3F3D56"/>
<path d="M400.37 228.8H385.77C385.481 228.807 385.207 228.926 385.005 229.133C384.803 229.339 384.69 229.616 384.69 229.905C384.69 230.194 384.803 230.471 385.005 230.677C385.207 230.884 385.481 231.003 385.77 231.01H400.37C400.66 231.006 400.937 230.888 401.141 230.681C401.345 230.474 401.46 230.195 401.46 229.905C401.46 229.615 401.345 229.336 401.141 229.129C400.937 228.922 400.66 228.804 400.37 228.8Z" fill="#3F3D56"/>
<path d="M400.37 232.95H385.77C385.481 232.956 385.206 233.076 385.004 233.282C384.802 233.489 384.689 233.766 384.689 234.055C384.689 234.344 384.802 234.621 385.004 234.828C385.206 235.034 385.481 235.154 385.77 235.16H400.37C400.661 235.157 400.938 235.039 401.143 234.832C401.347 234.625 401.462 234.346 401.462 234.055C401.462 233.764 401.347 233.485 401.143 233.278C400.938 233.071 400.661 232.954 400.37 232.95Z" fill="#3F3D56"/>
<path d="M400.37 237.1H385.77C385.481 237.107 385.207 237.226 385.005 237.433C384.803 237.639 384.69 237.916 384.69 238.205C384.69 238.494 384.803 238.771 385.005 238.977C385.207 239.184 385.481 239.303 385.77 239.31H400.37C400.66 239.306 400.937 239.188 401.141 238.981C401.345 238.774 401.46 238.495 401.46 238.205C401.46 237.915 401.345 237.636 401.141 237.429C400.937 237.222 400.66 237.104 400.37 237.1Z" fill="#3F3D56"/>
<path d="M179.44 270.273H174.194C172.604 270.273 171.314 271.563 171.314 273.153C171.314 274.744 172.604 276.033 174.194 276.033H179.44C181.031 276.033 182.32 274.744 182.32 273.153C182.32 271.563 181.031 270.273 179.44 270.273Z" fill="#E6E6E6"/>
<path d="M239.44 270.273H234.194C232.604 270.273 231.314 271.563 231.314 273.153C231.314 274.744 232.604 276.033 234.194 276.033H239.44C241.031 276.033 242.32 274.744 242.32 273.153C242.32 271.563 241.031 270.273 239.44 270.273Z" fill="#E6E6E6"/>
<path d="M256.44 270.273H251.194C249.604 270.273 248.314 271.563 248.314 273.153C248.314 274.744 249.604 276.033 251.194 276.033H256.44C258.031 276.033 259.32 274.744 259.32 273.153C259.32 271.563 258.031 270.273 256.44 270.273Z" fill="#E6E6E6"/>
<path d="M223.12 269.793H190.514C188.924 269.793 187.634 271.083 187.634 272.673C187.634 274.264 188.924 275.553 190.514 275.553H223.12C224.711 275.553 226 274.264 226 272.673C226 271.083 224.711 269.793 223.12 269.793Z" fill="#E6E6E6"/>
<path d="M303.12 269.793H270.514C268.924 269.793 267.634 271.083 267.634 272.673C267.634 274.264 268.924 275.553 270.514 275.553H303.12C304.711 275.553 306 274.264 306 272.673C306 271.083 304.711 269.793 303.12 269.793Z" fill="#E6E6E6"/>
<path d="M195.44 283.273H190.194C188.604 283.273 187.314 284.563 187.314 286.153C187.314 287.744 188.604 289.033 190.194 289.033H195.44C197.031 289.033 198.32 287.744 198.32 286.153C198.32 284.563 197.031 283.273 195.44 283.273Z" fill="#E6E6E6"/>
<path d="M255.44 283.273H250.194C248.604 283.273 247.314 284.563 247.314 286.153C247.314 287.744 248.604 289.033 250.194 289.033H255.44C257.031 289.033 258.32 287.744 258.32 286.153C258.32 284.563 257.031 283.273 255.44 283.273Z" fill="#E6E6E6"/>
<path d="M272.44 283.273H267.194C265.604 283.273 264.314 284.563 264.314 286.153C264.314 287.744 265.604 289.033 267.194 289.033H272.44C274.031 289.033 275.32 287.744 275.32 286.153C275.32 284.563 274.031 283.273 272.44 283.273Z" fill="#E6E6E6"/>
<path d="M239.12 282.793H206.514C204.924 282.793 203.634 284.083 203.634 285.673C203.634 287.264 204.924 288.553 206.514 288.553H239.12C240.711 288.553 242 287.264 242 285.673C242 284.083 240.711 282.793 239.12 282.793Z" fill="#E6E6E6"/>
<path d="M319.12 282.793H286.514C284.924 282.793 283.634 284.083 283.634 285.673C283.634 287.264 284.924 288.553 286.514 288.553H319.12C320.711 288.553 322 287.264 322 285.673C322 284.083 320.711 282.793 319.12 282.793Z" fill="#E6E6E6"/>
<path d="M211.44 296.273H206.194C204.604 296.273 203.314 297.563 203.314 299.153C203.314 300.744 204.604 302.033 206.194 302.033H211.44C213.031 302.033 214.32 300.744 214.32 299.153C214.32 297.563 213.031 296.273 211.44 296.273Z" fill="#E6E6E6"/>
<path d="M271.44 296.273H266.194C264.604 296.273 263.314 297.563 263.314 299.153C263.314 300.744 264.604 302.033 266.194 302.033H271.44C273.031 302.033 274.32 300.744 274.32 299.153C274.32 297.563 273.031 296.273 271.44 296.273Z" fill="#E6E6E6"/>
<path d="M288.44 296.273H283.194C281.604 296.273 280.314 297.563 280.314 299.153C280.314 300.744 281.604 302.033 283.194 302.033H288.44C290.031 302.033 291.32 300.744 291.32 299.153C291.32 297.563 290.031 296.273 288.44 296.273Z" fill="#E6E6E6"/>
<path d="M255.12 295.793H222.514C220.924 295.793 219.634 297.083 219.634 298.673C219.634 300.264 220.924 301.553 222.514 301.553H255.12C256.711 301.553 258 300.264 258 298.673C258 297.083 256.711 295.793 255.12 295.793Z" fill="#E6E6E6"/>
<path d="M335.12 295.793H302.514C300.924 295.793 299.634 297.083 299.634 298.673C299.634 300.264 300.924 301.553 302.514 301.553H335.12C336.711 301.553 338 300.264 338 298.673C338 297.083 336.711 295.793 335.12 295.793Z" fill="#E6E6E6"/>
<path d="M227.44 309.273H222.194C220.604 309.273 219.314 310.563 219.314 312.153C219.314 313.744 220.604 315.033 222.194 315.033H227.44C229.031 315.033 230.32 313.744 230.32 312.153C230.32 310.563 229.031 309.273 227.44 309.273Z" fill="#E6E6E6"/>
<path d="M287.44 309.273H282.194C280.604 309.273 279.314 310.563 279.314 312.153C279.314 313.744 280.604 315.033 282.194 315.033H287.44C289.031 315.033 290.32 313.744 290.32 312.153C290.32 310.563 289.031 309.273 287.44 309.273Z" fill="#E6E6E6"/>
<path d="M304.44 309.273H299.194C297.604 309.273 296.314 310.563 296.314 312.153C296.314 313.744 297.604 315.033 299.194 315.033H304.44C306.031 315.033 307.32 313.744 307.32 312.153C307.32 310.563 306.031 309.273 304.44 309.273Z" fill="#E6E6E6"/>
<path d="M271.12 308.793H238.514C236.924 308.793 235.634 310.083 235.634 311.673C235.634 313.264 236.924 314.553 238.514 314.553H271.12C272.711 314.553 274 313.264 274 311.673C274 310.083 272.711 308.793 271.12 308.793Z" fill="#E6E6E6"/>
<path d="M239.44 360.967H234.194C232.604 360.967 231.314 362.256 231.314 363.847C231.314 365.437 232.604 366.727 234.194 366.727H239.44C241.031 366.727 242.32 365.437 242.32 363.847C242.32 362.256 241.031 360.967 239.44 360.967Z" fill="#E6E6E6"/>
<path d="M256.44 360.967H251.194C249.604 360.967 248.314 362.256 248.314 363.847C248.314 365.437 249.604 366.727 251.194 366.727H256.44C258.031 366.727 259.32 365.437 259.32 363.847C259.32 362.256 258.031 360.967 256.44 360.967Z" fill="#E6E6E6"/>
<path d="M303.12 361.447H270.514C268.924 361.447 267.634 362.736 267.634 364.327C267.634 365.917 268.924 367.207 270.514 367.207H303.12C304.711 367.207 306 365.917 306 364.327C306 362.736 304.711 361.447 303.12 361.447Z" fill="#E6E6E6"/>
<path d="M179.44 360.967H174.194C172.604 360.967 171.314 362.256 171.314 363.847C171.314 365.437 172.604 366.727 174.194 366.727H179.44C181.031 366.727 182.32 365.437 182.32 363.847C182.32 362.256 181.031 360.967 179.44 360.967Z" fill="#E6E6E6"/>
<path d="M223.12 361.447H190.514C188.924 361.447 187.634 362.736 187.634 364.327C187.634 365.917 188.924 367.207 190.514 367.207H223.12C224.711 367.207 226 365.917 226 364.327C226 362.736 224.711 361.447 223.12 361.447Z" fill="#E6E6E6"/>
<path d="M195.44 347.967H190.194C188.604 347.967 187.314 349.256 187.314 350.847C187.314 352.437 188.604 353.727 190.194 353.727H195.44C197.031 353.727 198.32 352.437 198.32 350.847C198.32 349.256 197.031 347.967 195.44 347.967Z" fill="#E6E6E6"/>
<path d="M255.44 347.967H250.194C248.604 347.967 247.314 349.256 247.314 350.847C247.314 352.437 248.604 353.727 250.194 353.727H255.44C257.031 353.727 258.32 352.437 258.32 350.847C258.32 349.256 257.031 347.967 255.44 347.967Z" fill="#E6E6E6"/>
<path d="M272.44 347.967H267.194C265.604 347.967 264.314 349.256 264.314 350.847C264.314 352.437 265.604 353.727 267.194 353.727H272.44C274.031 353.727 275.32 352.437 275.32 350.847C275.32 349.256 274.031 347.967 272.44 347.967Z" fill="#E6E6E6"/>
<path d="M239.12 348.447H206.514C204.924 348.447 203.634 349.736 203.634 351.327C203.634 352.917 204.924 354.207 206.514 354.207H239.12C240.711 354.207 242 352.917 242 351.327C242 349.736 240.711 348.447 239.12 348.447Z" fill="#E6E6E6"/>
<path d="M211.44 334.967H206.194C204.604 334.967 203.314 336.256 203.314 337.847C203.314 339.437 204.604 340.727 206.194 340.727H211.44C213.031 340.727 214.32 339.437 214.32 337.847C214.32 336.256 213.031 334.967 211.44 334.967Z" fill="#E6E6E6"/>
<path d="M271.44 334.967H266.194C264.604 334.967 263.314 336.256 263.314 337.847C263.314 339.437 264.604 340.727 266.194 340.727H271.44C273.031 340.727 274.32 339.437 274.32 337.847C274.32 336.256 273.031 334.967 271.44 334.967Z" fill="#E6E6E6"/>
<path d="M288.44 334.967H283.194C281.604 334.967 280.314 336.256 280.314 337.847C280.314 339.437 281.604 340.727 283.194 340.727H288.44C290.031 340.727 291.32 339.437 291.32 337.847C291.32 336.256 290.031 334.967 288.44 334.967Z" fill="#E6E6E6"/>
<path d="M255.12 335.447H222.514C220.924 335.447 219.634 336.736 219.634 338.327C219.634 339.917 220.924 341.207 222.514 341.207H255.12C256.711 341.207 258 339.917 258 338.327C258 336.736 256.711 335.447 255.12 335.447Z" fill="#E6E6E6"/>
<path d="M227.44 321.967H222.194C220.604 321.967 219.314 323.256 219.314 324.847C219.314 326.437 220.604 327.727 222.194 327.727H227.44C229.031 327.727 230.32 326.437 230.32 324.847C230.32 323.256 229.031 321.967 227.44 321.967Z" fill="#E6E6E6"/>
<path d="M287.44 321.967H282.194C280.604 321.967 279.314 323.256 279.314 324.847C279.314 326.437 280.604 327.727 282.194 327.727H287.44C289.031 327.727 290.32 326.437 290.32 324.847C290.32 323.256 289.031 321.967 287.44 321.967Z" fill="#E6E6E6"/>
<path d="M304.44 321.967H299.194C297.604 321.967 296.314 323.256 296.314 324.847C296.314 326.437 297.604 327.727 299.194 327.727H304.44C306.031 327.727 307.32 326.437 307.32 324.847C307.32 323.256 306.031 321.967 304.44 321.967Z" fill="#E6E6E6"/>
<path d="M271.12 322.447H238.514C236.924 322.447 235.634 323.736 235.634 325.327C235.634 326.917 236.924 328.207 238.514 328.207H271.12C272.711 328.207 274 326.917 274 325.327C274 323.736 272.711 322.447 271.12 322.447Z" fill="#E6E6E6"/>
<path d="M415.81 548.77C415.2 549.08 414.58 549.39 413.97 549.69C398.17 557.59 385.53 562.08 368.24 567C366.78 550.7 365.37 522.05 364 504.29C363.64 499.68 363.28 495.81 362.93 493.08C362.842 491.629 362.545 490.197 362.05 488.83L362.11 493.08L362.26 504.29L363.13 568.4C341.622 574.091 319.529 577.275 297.29 577.89C296.13 577.92 294.99 577.94 293.89 577.96C293.5 577.97 293.12 577.98 292.74 577.98C291.49 577.99 290.25 578 289 578C265.564 578.017 242.213 575.187 219.46 569.57C219.95 553.44 220.44 525.11 220.91 504.29C221.01 500.22 221.1 496.43 221.2 493.08C221.39 485.92 221.59 480.76 221.78 479.03C221.612 479.337 221.481 479.662 221.39 480C220.464 484.312 219.832 488.682 219.5 493.08C219.15 496.43 218.8 500.22 218.45 504.29C216.59 525.92 214.65 555.33 212.65 567.8C200.746 564.55 189.064 560.532 177.68 555.77C171.68 553.27 165.787 550.573 160 547.68C161.1 540.48 162.25 532.41 163.43 524.04C164.35 517.55 165.3 510.88 166.27 504.29C167.77 494.11 169.31 484.13 170.87 475.34C173.15 462.5 175.49 452.18 177.81 447.44C180.01 442.94 182.21 438.5 184.34 434.25C185.08 432.76 185.82 431.29 186.54 429.86C186.71 429.52 186.88 429.19 187.05 428.86C188.58 425.85 190.06 422.97 191.47 420.27C192.68 417.96 193.83 415.78 194.92 413.77C197.56 408.89 199.8 405 201.46 402.54C208.4 392.013 218.732 384.176 230.74 380.33L231.04 380.25L231.25 380.34L251.7 374.06L254.69 373.14L256.7 372.52L263.78 367.13L267.63 364.2L271.24 361.45L278.3 356.08L322.01 358.77L330.52 379.26L349.58 386.23L349.91 386.08L350.2 385.96L350.5 386.04C362.506 389.889 372.837 397.726 379.78 408.25C380.72 409.66 381.86 411.52 383.15 413.77C384.25 415.68 385.45 417.86 386.75 420.27C388.6 423.7 390.62 427.57 392.76 431.76C393.23 432.68 393.71 433.62 394.19 434.57C395.08 436.33 395.983 438.127 396.9 439.96C399.03 444.21 401.23 448.65 403.43 453.16C405.34 457.07 407.27 465.11 409.17 475.34C410.74 483.84 412.3 493.86 413.81 504.29C415.79 517.81 413.68 534 415.47 546.44C415.58 547.23 415.7 548 415.81 548.77Z" fill="#3F3D56"/>
<path d="M289.615 339.725C317.691 339.725 340.451 316.964 340.451 288.888C340.451 260.812 317.691 238.052 289.615 238.052C261.539 238.052 238.779 260.812 238.779 288.888C238.779 316.964 261.539 339.725 289.615 339.725Z" fill="#A0616A"/>
<path d="M373.45 221.52C372.445 219.174 371.108 216.985 369.48 215.02C361.76 205.59 347.72 201.44 333.31 212.6C330.536 211.98 327.645 212.146 324.96 213.08C323.693 213.539 322.505 214.194 321.44 215.02C319.258 216.722 317.556 218.962 316.5 221.52C315.936 222.871 315.565 224.295 315.4 225.75C311.838 223.899 308.068 222.479 304.17 221.52C294.606 219.141 284.604 219.141 275.04 221.52C271.975 222.295 269.024 223.465 266.26 225C261.58 227.7 258.89 231.11 258.41 234.9C251.66 235.28 244.64 238.83 239.41 244.65C238.82 245.3 238.25 245.98 237.72 246.68C233.322 252.435 230.958 259.487 231 266.73V268H232.27C235.75 267.997 239.197 268.669 242.42 269.98C244.509 270.819 246.487 271.91 248.31 273.23C249.503 274.076 250.629 275.012 251.68 276.03C254.116 278.388 256.179 281.102 257.8 284.08C261.955 291.605 263.395 300.329 261.88 308.79C261.532 310.749 261.024 312.675 260.36 314.55C259.415 317.225 258.171 319.785 256.65 322.18C256.59 322.27 256.54 322.36 256.48 322.45C255.81 323.52 255.17 324.61 254.57 325.71C254.12 326.53 253.7 327.37 253.31 328.21C252.17 330.548 251.207 332.968 250.43 335.45C249.038 339.84 248.218 344.391 247.99 348.99C247.92 350.21 247.9 351.43 247.94 352.65C247.999 355.795 248.344 358.928 248.97 362.01C249.06 362.43 249.15 362.84 249.24 363.26L249.97 366.45L251.7 374.06L252.9 379.3L254.01 384.16L255.65 381.81C256.21 381.01 257.62 378.55 259.51 375.07C260.76 372.8 262.21 370.09 263.78 367.13C265.97 362.98 268.37 358.35 270.72 353.73C271.67 351.86 272.61 350 273.52 348.18C275.24 344.73 276.86 341.4 278.25 338.44C279.53 335.71 280.62 333.29 281.43 331.35C281.68 332.62 281.89 333.91 282.05 335.21C282.23 336.53 282.36 337.87 282.43 339.21C282.45 339.41 282.46 339.62 282.47 339.82L282.51 340.64L282.52 340.88L283.58 341.02C289.694 341.675 295.857 341.722 301.98 341.16H301.99C310.101 340.549 318.059 338.621 325.55 335.45C329.805 333.604 333.777 331.167 337.35 328.21C339.019 326.828 340.578 325.317 342.01 323.69C342.37 323.28 342.72 322.87 343.06 322.45C345.039 320.018 346.733 317.367 348.11 314.55C349.032 312.691 349.814 310.766 350.45 308.79C354.29 297.16 354.07 282.65 349.79 265.41C350.946 265.187 352.053 264.761 353.06 264.15C356.2 262.26 358.38 258.51 359.06 253.93L360.14 254.22C363.969 252.437 367.379 249.868 370.15 246.68C370.699 246.031 371.213 245.353 371.69 244.65C376.58 237.45 376.62 228.81 373.45 221.52Z" fill="#2F2E41"/>
<path opacity="0.2" d="M206.32 475.296L214.817 442.504L222.32 470.8L206.32 475.296Z" fill="black"/>
<path d="M432.43 453.93C429.39 495.81 432.54 514.25 415.76 548.78C400.493 556.253 384.59 562.35 368.24 567C366.54 567.48 364.837 567.947 363.13 568.4C341.622 574.091 319.529 577.275 297.29 577.89C296.13 577.92 294.99 577.94 293.89 577.96C293.5 577.97 293.12 577.98 292.74 577.98C291.49 577.99 290.25 578 289 578C265.564 578.017 242.213 575.187 219.46 569.57C217.18 569.01 214.91 568.42 212.65 567.8C200.746 564.55 189.064 560.532 177.68 555.77C171.68 553.27 165.787 550.573 160 547.68C158.69 547.02 157.38 546.36 156.09 545.68C149.46 534.02 145.69 519.84 145.61 502.8C150.2 473.44 422.29 428.61 432.43 453.93Z" fill="#2F2E41"/>
<path opacity="0.2" d="M432.422 461.102C432.577 458.509 432.751 455.831 432.953 453.042C422.813 427.722 150.723 472.552 146.133 501.912C146.146 504.604 146.261 507.216 146.455 509.767C157.57 480.789 416.059 438.181 432.422 461.102Z" fill="black"/>
<path d="M163.096 342.152C163.162 341.245 163.033 340.335 162.718 339.482C162.403 338.629 161.909 337.854 161.269 337.208C160.629 336.562 159.859 336.061 159.009 335.738C158.159 335.415 157.25 335.278 156.343 335.336C156.005 335.349 155.668 335.391 155.338 335.462L115.576 344.444C114.687 344.66 113.854 345.059 113.129 345.616C112.404 346.173 111.804 346.876 111.367 347.679C110.784 347.701 110.205 347.786 109.639 347.931C108.402 348.211 107.232 348.732 106.196 349.465C105.16 350.198 104.279 351.127 103.602 352.2C102.926 353.274 102.467 354.47 102.253 355.72C102.038 356.971 102.072 358.251 102.353 359.489C102.633 360.726 103.155 361.896 103.887 362.932C104.62 363.968 105.55 364.849 106.623 365.526C108.79 366.892 111.412 367.342 113.911 366.775C115.333 366.445 116.664 365.801 117.805 364.891L131.279 402.831C131.952 404.02 132.992 404.96 134.243 405.509C135.494 406.058 136.89 406.187 138.22 405.878L164.069 400.036C165.39 399.727 166.578 399.007 167.464 397.98C168.35 396.953 168.888 395.672 169 394.32L163.096 342.152ZM113.314 364.074C111.529 364.477 109.658 364.155 108.11 363.18C106.562 362.205 105.464 360.656 105.056 358.872C104.649 357.088 104.965 355.216 105.936 353.665C106.907 352.115 108.454 351.013 110.236 350.6C110.362 350.569 110.488 350.6 110.613 350.569C110.604 351.713 110.896 352.84 111.461 353.835L116.392 362.441C115.534 363.255 114.47 363.82 113.314 364.074Z" fill="#2F2E41"/>
<path d="M156.343 335.336C156.72 340.361 148.114 346.14 136.587 348.433C126.003 350.6 116.518 349.093 113.848 345.135C114.385 344.817 114.967 344.584 115.576 344.444L155.338 335.462C155.668 335.391 156.005 335.349 156.343 335.336Z" fill="#3F3D56"/>
<path d="M128.843 462.905L151.177 451.738L132.566 401.488L127.661 376.146C127.023 372.853 125.533 369.786 123.339 367.25C121.145 364.714 118.324 362.798 115.157 361.694C111.991 360.59 108.59 360.336 105.294 360.958C101.999 361.58 98.9247 363.056 96.3785 365.238C92.6054 368.472 90.2363 373.046 89.7712 377.994C89.3062 382.941 90.7816 387.876 93.886 391.757L112.093 414.516L128.843 462.905Z" fill="#A0616A"/>
<path d="M151.177 442.433L121.399 457.322L143.997 528.131C145.62 533.216 148.529 537.795 152.443 541.424C156.356 545.054 161.141 547.611 166.333 548.847C172.735 550.372 179.457 549.817 185.523 547.265C191.589 544.712 196.684 540.294 200.07 534.65L259.995 431.936C264.242 424.859 265.553 416.401 263.648 408.37C261.743 400.338 256.773 393.371 249.8 388.954C246.049 386.579 241.841 385.02 237.448 384.379C233.055 383.738 228.577 384.029 224.304 385.233C220.031 386.437 216.06 388.527 212.648 391.368C209.237 394.208 206.462 397.735 204.504 401.719L167.928 479.656L151.177 442.433Z" fill="#3F3D56"/>
<path d="M141.967 378.441C141.911 378.441 141.857 378.432 141.804 378.414L135.303 376.176C135.224 376.149 135.154 376.103 135.097 376.042C135.041 375.981 135.001 375.907 134.98 375.826C134.96 375.746 134.96 375.661 134.98 375.581C135.001 375.5 135.041 375.426 135.097 375.365L139.933 370.101C139.977 370.052 140.03 370.012 140.09 369.985C140.15 369.957 140.214 369.941 140.28 369.938C140.346 369.935 140.411 369.945 140.473 369.967C140.535 369.99 140.592 370.024 140.64 370.069C140.689 370.113 140.728 370.167 140.756 370.227C140.783 370.286 140.799 370.351 140.802 370.417C140.804 370.482 140.794 370.548 140.771 370.61C140.748 370.671 140.714 370.728 140.669 370.776L136.35 375.479L142.129 377.469C142.241 377.507 142.336 377.584 142.396 377.686C142.457 377.787 142.479 377.907 142.46 378.024C142.44 378.141 142.38 378.247 142.29 378.323C142.2 378.4 142.085 378.441 141.967 378.441Z" fill="#4F46E5"/>
<path d="M150.878 376.617C150.779 376.617 150.681 376.587 150.599 376.532C150.516 376.476 150.452 376.397 150.415 376.305C150.378 376.212 150.369 376.111 150.389 376.014C150.41 375.916 150.459 375.827 150.531 375.758L154.925 371.509L149.022 369.076C148.961 369.051 148.906 369.015 148.859 368.968C148.813 368.922 148.776 368.867 148.75 368.806C148.725 368.746 148.712 368.681 148.712 368.615C148.712 368.549 148.724 368.484 148.75 368.423C148.775 368.363 148.811 368.307 148.858 368.261C148.904 368.214 148.959 368.178 149.02 368.152C149.081 368.127 149.146 368.114 149.211 368.114C149.277 368.114 149.342 368.127 149.403 368.152L156.012 370.876C156.089 370.908 156.157 370.958 156.209 371.022C156.262 371.086 156.297 371.163 156.313 371.244C156.329 371.326 156.324 371.41 156.299 371.489C156.274 371.568 156.229 371.64 156.169 371.697L151.226 376.477C151.133 376.567 151.008 376.617 150.878 376.617Z" fill="#4F46E5"/>
<path d="M143.332 381.5C143.282 381.5 143.232 381.493 143.185 381.478C143.122 381.458 143.063 381.427 143.013 381.385C142.962 381.343 142.92 381.292 142.889 381.234C142.859 381.176 142.84 381.112 142.834 381.047C142.827 380.981 142.834 380.915 142.853 380.853L147.468 365.853C147.508 365.726 147.596 365.621 147.713 365.559C147.83 365.497 147.967 365.485 148.093 365.524C148.22 365.563 148.326 365.65 148.388 365.767C148.45 365.884 148.463 366.021 148.424 366.147L143.81 381.147C143.778 381.25 143.715 381.339 143.629 381.402C143.543 381.466 143.438 381.5 143.332 381.5Z" fill="#4F46E5"/>
</g>
<defs>
<clipPath id="clip0_5_104">
<rect width="578" height="578" fill="white"/>
</clipPath>
</defs>
</svg>
